HIERARCHY
ROOT Hips
{
	OFFSET 0.000000 71.427986 0.000000
	CHANNELS 6 Xposition Yposition Zposition Xrotation Yrotation Zrotation
	JOINT Pelvis
	{
		OFFSET 0.000000 0.000000 0.000000
		CHANNELS 3 Xrotation Yrotation Zrotation
		JOINT LeftUpLeg
		{
			OFFSET 6.797100 -2.508499 -1.318700
			CHANNELS 3 Xrotation Yrotation Zrotation
			JOINT LeftLeg
			{
				OFFSET 0.069008 -29.241863 0.690200
				CHANNELS 3 Xrotation Yrotation Zrotation
				JOINT LeftFoot
				{
					OFFSET -0.069008 -29.568123 -0.266800
					CHANNELS 3 Xrotation Yrotation Zrotation
					JOINT LeftToeBase
					{
						OFFSET 3.145500 -8.631000 16.059900
						CHANNELS 3 Xrotation Yrotation Zrotation
						End Site
						{
							OFFSET 0.000000 18.501587 0.000000
						}
					}
				}
			}
			JOINT Left_ShortSleeve
			{
				OFFSET 0.265923 -10.480953 1.153800
				CHANNELS 3 Xrotation Yrotation Zrotation
				End Site
				{
					OFFSET 1.725763 19.823879 0.000000
				}
			}
		}
		JOINT RightUpLeg
		{
			OFFSET -6.797100 -2.508499 -1.318700
			CHANNELS 3 Xrotation Yrotation Zrotation
			JOINT RightLeg
			{
				OFFSET -0.082453 -29.241932 0.688000
				CHANNELS 3 Xrotation Yrotation Zrotation
				JOINT RightFoot
				{
					OFFSET 0.082453 -29.568058 -0.264600
					CHANNELS 3 Xrotation Yrotation Zrotation
					JOINT RightToeBase
					{
						OFFSET -3.115300 -8.682800 16.113400
						CHANNELS 3 Xrotation Yrotation Zrotation
						End Site
						{
							OFFSET 0.000000 18.567114 0.000000
						}
					}
				}
			}
			JOINT Right_ShortSleeve
			{
				OFFSET -0.265923 -10.480953 1.153800
				CHANNELS 3 Xrotation Yrotation Zrotation
				End Site
				{
					OFFSET -1.725766 19.823910 0.000000
				}
			}
		}
	}
	JOINT Spine
	{
		OFFSET 0.000000 13.368103 0.470500
		CHANNELS 3 Xrotation Yrotation Zrotation
		JOINT Spine1
		{
			OFFSET 0.147000 13.837402 0.538800
			CHANNELS 3 Xrotation Yrotation Zrotation
			JOINT Spine2
			{
				OFFSET 0.168000 16.242897 -1.435500
				CHANNELS 3 Xrotation Yrotation Zrotation
				JOINT Neck
				{
					OFFSET 0.217200 18.631500 -1.679100
					CHANNELS 3 Xrotation Yrotation Zrotation
					JOINT Head
					{
						OFFSET 0.000000 6.599396 1.385900
						CHANNELS 3 Xrotation Yrotation Zrotation
						JOINT Hat
						{
							OFFSET -0.532200 27.220596 -10.096100
							CHANNELS 3 Xrotation Yrotation Zrotation
							End Site
							{
								OFFSET 0.000000 22.029861 0.000000
							}
						}
						JOINT HairD
						{
							OFFSET -10.777400 17.437393 -1.325900
							CHANNELS 3 Xrotation Yrotation Zrotation
							JOINT HairD1
							{
								OFFSET -3.290299 -11.051193 1.062200
								CHANNELS 3 Xrotation Yrotation Zrotation
								End Site
								{
									OFFSET 0.000000 11.579437 0.000000
								}
							}
						}
						JOINT HairB
						{
							OFFSET -10.777400 17.437393 1.467900
							CHANNELS 3 Xrotation Yrotation Zrotation
							JOINT HairB1
							{
								OFFSET -1.561200 -12.956299 3.590200
								CHANNELS 3 Xrotation Yrotation Zrotation
								End Site
								{
									OFFSET 0.000000 13.534866 0.000000
								}
							}
						}
						JOINT HairA
						{
							OFFSET 9.713100 17.437393 1.467900
							CHANNELS 3 Xrotation Yrotation Zrotation
							JOINT HairA1
							{
								OFFSET 1.561200 -12.956299 3.590200
								CHANNELS 3 Xrotation Yrotation Zrotation
								End Site
								{
									OFFSET 0.000000 13.534866 0.000000
								}
							}
						}
						JOINT HairC
						{
							OFFSET 9.713100 17.437393 -1.325900
							CHANNELS 3 Xrotation Yrotation Zrotation
							JOINT HairC1
							{
								OFFSET 3.290300 -11.051193 1.062200
								CHANNELS 3 Xrotation Yrotation Zrotation
								End Site
								{
									OFFSET 0.000000 11.579437 0.000000
								}
							}
						}
					}
				}
				JOINT LeftShoulder
				{
					OFFSET 5.101800 15.108002 -2.763700
					CHANNELS 3 Xrotation Yrotation Zrotation
					JOINT LeftArm
					{
						OFFSET 9.825497 2.506317 -1.597400
						CHANNELS 3 Xrotation Yrotation Zrotation
						JOINT LeftForeArm
						{
							OFFSET 21.966244 0.000000 0.000000
							CHANNELS 3 Xrotation Yrotation Zrotation
							JOINT LeftHand
							{
								OFFSET 33.879036 0.000000 0.000000
								CHANNELS 3 Xrotation Yrotation Zrotation
								JOINT LeftHandThumb1
								{
									OFFSET 6.715286 -2.359680 3.363841
									CHANNELS 3 Xrotation Yrotation Zrotation
									JOINT LeftHandThumb2
									{
										OFFSET 2.507072 -1.447464 1.447461
										CHANNELS 3 Xrotation Yrotation Zrotation
										JOINT LeftHandThumb3
										{
											OFFSET 2.898338 -1.673355 1.673357
											CHANNELS 3 Xrotation Yrotation Zrotation
											End Site
											{
												OFFSET -0.295959 3.727692 -0.131651
											}
										}
									}
								}
								JOINT LeftHandIndex1
								{
									OFFSET 14.190811 -0.254547 3.840278
									CHANNELS 3 Xrotation Yrotation Zrotation
									JOINT LeftHandIndex2
									{
										OFFSET 3.551727 0.000000 -0.000000
										CHANNELS 3 Xrotation Yrotation Zrotation
										JOINT LeftHandIndex3
										{
											OFFSET 2.894196 0.000000 0.000000
											CHANNELS 3 Xrotation Yrotation Zrotation
											End Site
											{
												OFFSET -1.000603 2.690872 0.366626
											}
										}
									}
								}
								JOINT LeftHandMiddle1
								{
									OFFSET 13.776489 0.000000 0.000000
									CHANNELS 3 Xrotation Yrotation Zrotation
									JOINT LeftHandMiddle2
									{
										OFFSET 3.438232 0.000000 0.000000
										CHANNELS 3 Xrotation Yrotation Zrotation
										JOINT LeftHandMiddle3
										{
											OFFSET 3.691551 0.000000 0.000000
											CHANNELS 3 Xrotation Yrotation Zrotation
											End Site
											{
												OFFSET -1.082298 3.499527 0.457670
											}
										}
									}
								}
								JOINT LeftHandRing1
								{
									OFFSET 13.966164 -0.268127 -3.067488
									CHANNELS 3 Xrotation Yrotation Zrotation
									JOINT LeftHandRing2
									{
										OFFSET 3.162567 0.000000 0.000000
										CHANNELS 3 Xrotation Yrotation Zrotation
										JOINT LeftHandRing3
										{
											OFFSET 3.324348 0.000000 0.000000
											CHANNELS 3 Xrotation Yrotation Zrotation
											End Site
											{
												OFFSET -0.861900 3.184998 0.405154
											}
										}
									}
								}
								JOINT LeftHandPinky1
								{
									OFFSET 13.131393 -0.168503 -5.746925
									CHANNELS 3 Xrotation Yrotation Zrotation
									JOINT LeftHandPinky2
									{
										OFFSET 2.849182 0.000000 0.000000
										CHANNELS 3 Xrotation Yrotation Zrotation
										JOINT LeftHandPinky3
										{
											OFFSET 2.805038 0.000000 0.000000
											CHANNELS 3 Xrotation Yrotation Zrotation
											End Site
											{
												OFFSET -0.882500 2.642609 0.325652
											}
										}
									}
								}
							}
							JOINT Left_Sleeve
							{
								OFFSET 6.592125 -0.646545 0.805568
								CHANNELS 3 Xrotation Yrotation Zrotation
								End Site
								{
									OFFSET -0.000179 20.275787 -0.000000
								}
							}
						}
					}
				}
				JOINT RightShoulder
				{
					OFFSET -5.731700 15.108002 -2.763700
					CHANNELS 3 Xrotation Yrotation Zrotation
					JOINT RightArm
					{
						OFFSET -9.825497 2.506317 -1.597400
						CHANNELS 3 Xrotation Yrotation Zrotation
						JOINT RightForeArm
						{
							OFFSET -21.966242 0.000000 0.000000
							CHANNELS 3 Xrotation Yrotation Zrotation
							JOINT RightHand
							{
								OFFSET -33.879032 0.000000 0.000000
								CHANNELS 3 Xrotation Yrotation Zrotation
								JOINT RightHandThumb1
								{
									OFFSET -6.715286 -2.359680 3.363841
									CHANNELS 3 Xrotation Yrotation Zrotation
									JOINT RightHandThumb2
									{
										OFFSET -2.507072 -1.447464 1.447461
										CHANNELS 3 Xrotation Yrotation Zrotation
										JOINT RightHandThumb3
										{
											OFFSET -2.898338 -1.673355 1.673357
											CHANNELS 3 Xrotation Yrotation Zrotation
											End Site
											{
												OFFSET 0.295959 3.727692 -0.131651
											}
										}
									}
								}
								JOINT RightHandIndex1
								{
									OFFSET -14.190811 -0.254547 3.840278
									CHANNELS 3 Xrotation Yrotation Zrotation
									JOINT RightHandIndex2
									{
										OFFSET -3.551727 0.000000 -0.000000
										CHANNELS 3 Xrotation Yrotation Zrotation
										JOINT RightHandIndex3
										{
											OFFSET -2.894196 0.000000 0.000000
											CHANNELS 3 Xrotation Yrotation Zrotation
											End Site
											{
												OFFSET 1.000603 2.690872 0.366626
											}
										}
									}
								}
								JOINT RightHandMiddle1
								{
									OFFSET -13.776489 0.000000 0.000000
									CHANNELS 3 Xrotation Yrotation Zrotation
									JOINT RightHandMiddle2
									{
										OFFSET -3.438232 0.000000 0.000000
										CHANNELS 3 Xrotation Yrotation Zrotation
										JOINT RightHandMiddle3
										{
											OFFSET -3.691551 0.000000 0.000000
											CHANNELS 3 Xrotation Yrotation Zrotation
											End Site
											{
												OFFSET 1.082298 3.499527 0.457670
											}
										}
									}
								}
								JOINT RightHandRing1
								{
									OFFSET -13.966164 -0.268127 -3.067488
									CHANNELS 3 Xrotation Yrotation Zrotation
									JOINT RightHandRing2
									{
										OFFSET -3.162567 0.000000 0.000000
										CHANNELS 3 Xrotation Yrotation Zrotation
										JOINT RightHandRing3
										{
											OFFSET -3.324348 0.000000 0.000000
											CHANNELS 3 Xrotation Yrotation Zrotation
											End Site
											{
												OFFSET 0.861900 3.184998 0.405154
											}
										}
									}
								}
								JOINT RightHandPinky1
								{
									OFFSET -13.131393 -0.168503 -5.746925
									CHANNELS 3 Xrotation Yrotation Zrotation
									JOINT RightHandPinky2
									{
										OFFSET -2.849182 0.000000 0.000000
										CHANNELS 3 Xrotation Yrotation Zrotation
										JOINT RightHandPinky3
										{
											OFFSET -2.805038 0.000000 0.000000
											CHANNELS 3 Xrotation Yrotation Zrotation
											End Site
											{
												OFFSET 0.882500 2.642609 0.325652
											}
										}
									}
								}
							}
							JOINT Right_Sleeve
							{
								OFFSET -6.592125 -0.646545 0.805568
								CHANNELS 3 Xrotation Yrotation Zrotation
								End Site
								{
									OFFSET 0.000179 20.275787 -0.000000
								}
							}
						}
					}
				}
				JOINT Bind_Right_JacketString
				{
					OFFSET -3.534800 11.969597 7.200700
					CHANNELS 3 Xrotation Yrotation Zrotation
					JOINT Bind_Right_JacketString1
					{
						OFFSET -0.319900 -6.102600 2.794100
						CHANNELS 3 Xrotation Yrotation Zrotation
						End Site
						{
							OFFSET 0.000000 6.719452 0.000000
						}
					}
				}
				JOINT Bind_Left_JacketString
				{
					OFFSET 2.904800 11.969597 7.200700
					CHANNELS 3 Xrotation Yrotation Zrotation
					JOINT Bind_Left_JacketString1
					{
						OFFSET 0.364800 -5.904503 3.186800
						CHANNELS 3 Xrotation Yrotation Zrotation
						End Site
						{
							OFFSET 0.000000 6.719513 0.000000
						}
					}
				}
				JOINT HairE
				{
					OFFSET 5.915200 17.612701 -11.592200
					CHANNELS 3 Xrotation Yrotation Zrotation
					JOINT HairE1
					{
						OFFSET 0.289200 -7.171898 -1.284500
						CHANNELS 3 Xrotation Yrotation Zrotation
						End Site
						{
							OFFSET 0.000000 7.291756 0.000000
						}
					}
				}
				JOINT HairF
				{
					OFFSET -0.864800 17.612701 -11.592200
					CHANNELS 3 Xrotation Yrotation Zrotation
					JOINT HairF1
					{
						OFFSET 0.000000 -14.087097 -2.127501
						CHANNELS 3 Xrotation Yrotation Zrotation
						End Site
						{
							OFFSET 0.000000 14.246841 0.000000
						}
					}
				}
				JOINT HairG
				{
					OFFSET -8.087700 17.612701 -11.592200
					CHANNELS 3 Xrotation Yrotation Zrotation
					JOINT HairG1
					{
						OFFSET -0.293600 -6.081398 -0.910100
						CHANNELS 3 Xrotation Yrotation Zrotation
						End Site
						{
							OFFSET 0.000000 6.156120 0.000000
						}
					}
				}
			}
		}
	}
	JOINT Pouch
	{
		OFFSET 0.000000 4.394501 10.847300
		CHANNELS 3 Xrotation Yrotation Zrotation
		End Site
		{
			OFFSET 0.000000 21.880577 0.000000
		}
	}
	JOINT Bag
	{
		OFFSET -13.229000 4.813004 -0.593300
		CHANNELS 3 Xrotation Yrotation Zrotation
		End Site
		{
			OFFSET 0.000000 21.880577 0.000000
		}
	}
	JOINT OccupyGuyFacialAnim_Joint
	{
		OFFSET 1.000000 -70.206398 -1.655000
		CHANNELS 3 Xrotation Yrotation Zrotation
		End Site
		{
			OFFSET 0.000000 21.880577 0.000000
		}
	}
}
MOTION
Frames: 4
Frame Time: 0.033333
-0.737683 60.645103 0.760036 11.682577 -49.446396 11.201345 -0.000001 -0.000003 0.000000 -62.355051 29.780796 41.562364 46.271707 -20.448635 3.240064 -1.174276 1.237432 -9.131586 0.000000 0.000000 -0.000000 -0.000002 0.000001 -0.000000 -32.413656 -1.686895 -23.577099 54.930458 2.258404 -6.882801 -29.998659 -3.201523 23.245386 -0.000000 0.000000 0.000000 -0.000002 0.000001 -0.000001 10.969099 2.808483 -1.964420 6.100712 5.566528 -4.284684 -5.786924 6.328148 -3.046183 2.318594 9.363324 -0.265372 -4.146525 23.161870 -3.523212 -0.000000 -0.000000 0.000000 -0.000000 -0.000000 0.000000 -0.000000 -0.000000 -0.000000 -0.000000 -0.000000 -0.000000 -0.000000 -0.000000 -0.000000 -0.000000 -0.000000 -0.000000 -0.000000 -0.000000 -0.000000 -0.000000 -0.000000 0.000000 -0.000000 -0.000000 0.000000 -1.875353 -16.181744 -2.870471 -10.644672 2.164763 -45.510640 -22.862371 -25.786215 -15.871686 2.491084 -2.511903 6.860505 18.457963 -9.513760 13.216602 -1.150196 11.255308 -8.400824 0.000001 -0.000002 0.000005 -1.232809 -5.771931 -0.192351 0.133955 -0.197638 -4.602108 -0.000000 0.000002 -0.000002 1.884747 4.663365 -4.597420 0.476694 -1.009855 -12.986415 0.000002 0.000002 -0.000001 3.024622 7.938946 -14.103465 -0.708014 -0.566226 -18.895773 0.000003 0.000000 -0.000002 2.010377 6.305968 -22.386548 -0.815374 -0.210757 -16.746473 -0.000004 -0.000000 0.000001 -0.000003 0.000001 -0.000001 -5.074637 24.343991 1.482687 6.642390 -34.734012 57.610460 -21.032067 44.833843 19.961720 -0.087248 35.608498 7.474325 55.149539 18.649507 -29.698274 -0.442529 -14.180542 7.313168 -0.000001 -0.000001 0.000001 5.673417 7.584993 36.844161 1.050453 3.824535 68.900223 0.000002 -0.000001 -0.000002 -0.125680 1.886068 45.000776 -1.169024 3.204652 68.417684 0.000001 -0.000003 0.000002 -5.311988 1.216652 58.508821 -0.745210 1.667570 48.011261 -0.000000 -0.000002 -0.000002 -7.756789 -9.376468 47.263980 -0.526061 1.541563 45.600552 0.000002 0.000000 -0.000003 0.000002 -0.000001 0.000001 -0.000000 -0.000001 0.000000 0.000001 -0.000001 -0.000000 -0.000000 -0.000001 0.000001 -0.000000 -0.000001 0.000001 -0.000000 -0.000001 0.000000 0.000001 -0.000001 -0.000000 -0.000000 -0.000001 0.000001 -0.000000 -0.000001 0.000001 -0.000000 -0.000001 0.000000 0.000001 -0.000001 -0.000000 -0.000001 -0.000003 0.000000 -0.000001 -0.000003 0.000000 -0.000001 -0.000003 0.000000 
-0.891228 60.457191 0.095222 12.293576 -48.855909 11.101071 -0.000000 0.000002 -0.000000 -63.222143 28.735091 41.777467 45.651724 -20.555517 3.191513 -0.148507 1.121632 -9.591105 -0.000000 -0.000000 -0.000000 0.000002 0.000000 -0.000000 -33.643780 -1.959130 -22.596457 56.362769 1.830196 -6.824738 -30.491597 -3.370492 22.691121 -0.000000 -0.000002 0.000000 -0.000000 0.000000 -0.000001 10.992535 2.670338 -1.925186 6.754509 5.033159 -4.592142 -5.089075 5.851777 -3.371038 1.303833 9.692596 -0.061485 -3.885806 23.329073 -3.684717 0.000000 -0.000000 -0.000000 0.000000 -0.000000 -0.000000 0.000000 -0.000000 -0.000000 0.000000 -0.000000 -0.000000 -0.000001 -0.000000 -0.000000 0.000000 -0.000000 -0.000000 -0.000001 -0.000000 -0.000000 0.000000 -0.000000 -0.000000 0.000000 -0.000000 -0.000000 -1.828761 -16.162123 -2.677977 -11.948974 1.191742 -46.872573 -22.907780 -26.138637 -16.246430 1.832898 -0.154980 8.559462 18.457970 -9.513747 13.216606 -1.150189 11.255277 -8.400833 0.000005 0.000003 -0.000003 -1.232795 -5.771944 -0.192375 0.133975 -0.197649 -4.602106 -0.000003 0.000001 -0.000002 1.884758 4.663362 -4.597416 0.476689 -1.009837 -12.986398 -0.000002 -0.000002 0.000000 3.024646 7.938906 -14.103499 -0.708015 -0.566219 -18.895708 -0.000001 0.000003 0.000003 2.010411 6.305956 -22.386531 -0.815377 -0.210758 -16.746473 -0.000003 -0.000001 0.000001 -0.000003 0.000005 -0.000003 -5.468152 24.292309 2.263035 4.419739 -33.056640 57.026837 -21.018268 44.797524 19.939122 -0.621422 35.012161 8.309006 55.149543 18.649502 -29.698260 -0.442528 -14.180539 7.313169 -0.000000 -0.000002 0.000002 5.673417 7.584990 36.844154 1.050454 3.824535 68.900230 -0.000000 0.000001 -0.000003 -0.125681 1.886066 45.000770 -1.169024 3.204650 68.417684 0.000001 -0.000002 -0.000001 -5.311987 1.216651 58.508814 -0.745209 1.667569 48.011261 -0.000001 -0.000001 0.000001 -7.756789 -9.376468 47.263977 -0.526062 1.541555 45.600549 -0.000001 -0.000001 0.000002 0.000002 -0.000002 -0.000000 0.000001 0.000002 -0.000001 0.000002 0.000000 -0.000000 0.000001 0.000002 -0.000001 0.000001 0.000002 -0.000001 0.000001 0.000002 -0.000001 0.000002 0.000000 -0.000000 0.000001 0.000002 -0.000001 0.000001 0.000002 -0.000001 0.000001 0.000002 -0.000001 0.000002 0.000000 -0.000000 -0.000000 0.000002 -0.000000 -0.000000 0.000002 -0.000000 -0.000000 0.000002 -0.000000 
-1.037027 60.308205 -0.637293 12.691786 -48.425881 10.783029 -0.000000 0.000001 -0.000000 -63.507823 27.426435 41.721292 44.704759 -20.383468 3.135223 0.994760 1.189125 -10.313160 -0.000000 -0.000000 -0.000000 -0.000003 0.000000 0.000000 -34.788479 -2.361073 -21.533401 57.666536 1.523861 -6.756513 -30.855137 -3.434463 22.012356 -0.000000 0.000002 -0.000000 0.000000 0.000000 -0.000002 11.117184 2.463043 -1.864840 7.330222 4.567190 -4.931458 -4.465549 5.449837 -3.741059 0.424822 9.948804 0.216967 -3.376250 23.356821 -4.009227 -0.000002 -0.000000 -0.000000 -0.000002 -0.000000 -0.000000 -0.000002 -0.000000 -0.000000 -0.000002 -0.000000 -0.000000 -0.000002 0.000000 0.000000 -0.000002 -0.000000 -0.000000 -0.000002 0.000000 0.000000 -0.000002 -0.000000 -0.000000 -0.000002 -0.000000 -0.000000 -1.803496 -16.224496 -2.561319 -12.568406 1.102136 -48.359566 -22.340543 -25.495016 -16.073812 0.841914 2.071395 9.577854 18.457987 -9.513729 13.216612 -1.150215 11.255287 -8.400819 0.000002 -0.000000 -0.000001 -1.232783 -5.771909 -0.192350 0.133948 -0.197664 -4.602114 0.000003 -0.000001 -0.000000 1.884750 4.663378 -4.597395 0.476690 -1.009853 -12.986397 0.000003 0.000000 0.000001 3.024636 7.938928 -14.103479 -0.708022 -0.566219 -18.895746 0.000002 0.000001 -0.000002 2.010403 6.305948 -22.386532 -0.815386 -0.210763 -16.746512 -0.000002 -0.000001 0.000001 0.000002 0.000003 -0.000004 -5.572651 24.389135 2.414329 1.499797 -30.849014 57.189444 -20.720472 43.994645 19.445849 -0.929844 34.380423 9.538004 55.149543 18.649505 -29.698267 -0.442530 -14.180544 7.313170 -0.000002 0.000003 0.000000 5.673415 7.584989 36.844151 1.050455 3.824527 68.900230 0.000001 -0.000000 0.000002 -0.125683 1.886067 45.000776 -1.169024 3.204651 68.417677 0.000001 0.000000 -0.000001 -5.311992 1.216650 58.508821 -0.745210 1.667571 48.011268 -0.000001 -0.000000 0.000002 -7.756792 -9.376466 47.263984 -0.526062 1.541560 45.600556 -0.000001 -0.000001 -0.000001 0.000001 -0.000000 0.000000 0.000002 -0.000002 0.000001 -0.000000 0.000000 -0.000000 0.000002 -0.000002 0.000001 0.000002 -0.000002 0.000001 0.000002 -0.000002 0.000001 -0.000000 0.000000 0.000000 0.000002 -0.000002 0.000001 0.000002 -0.000002 0.000001 0.000002 -0.000002 0.000001 -0.000000 0.000000 0.000000 -0.000000 0.000001 -0.000000 -0.000000 0.000001 -0.000000 -0.000000 0.000001 -0.000000 
-1.159644 60.199898 -1.355938 12.896878 -48.107191 10.305537 -0.000000 0.000004 -0.000000 -63.330224 25.993012 41.463203 43.577444 -20.016684 3.076174 2.146915 1.377225 -11.164364 0.000000 0.000000 -0.000000 -0.000003 0.000000 -0.000000 -35.739453 -2.841137 -20.524034 58.727606 1.249855 -6.628897 -31.056744 -3.392212 21.330577 0.000000 -0.000003 -0.000000 0.000001 0.000000 -0.000000 11.247488 2.200312 -1.777485 7.799950 4.138640 -5.268858 -3.946905 5.089889 -4.107996 -0.274239 10.108139 0.613725 -2.674248 23.242487 -4.480771 0.000000 0.000000 0.000001 0.000000 0.000000 0.000001 0.000000 0.000000 0.000000 0.000000 0.000000 0.000000 -0.000002 0.000000 0.000000 0.000000 0.000000 0.000000 -0.000002 0.000000 0.000000 0.000000 0.000000 0.000001 0.000000 0.000000 0.000001 -1.736500 -16.492422 -2.254461 -12.151423 1.960096 -49.791966 -21.287733 -24.408999 -15.609815 -0.899675 4.019987 10.126679 18.337608 -9.545098 13.251132 -1.153439 11.268833 -8.398674 -0.000002 -0.000000 0.000001 -1.195070 -5.437480 -0.970157 0.130730 -0.236774 -5.446240 0.000001 -0.000001 -0.000000 1.887350 4.665704 -5.294693 0.451447 -1.084391 -14.542702 0.000011 0.000001 -0.000001 3.012518 7.897292 -14.840317 -0.727939 -0.641920 -20.348102 -0.000002 0.000002 0.000000 1.992781 6.249787 -23.140988 -0.828540 -0.285924 -18.094722 -0.000002 -0.000000 0.000001 -0.000002 0.000002 -0.000000 -5.634900 24.538882 2.320186 -1.776191 -28.194176 57.685811 -20.303106 42.806985 18.736380 -0.245079 33.389492 10.502457 55.149550 18.649504 -29.698267 -0.442530 -14.180540 7.313168 -0.000003 -0.000003 -0.000000 5.673415 7.584993 36.844158 1.050454 3.824529 68.900223 0.000000 0.000001 0.000000 -0.125683 1.886068 45.000776 -1.169024 3.204645 68.417684 0.000001 -0.000000 -0.000003 -5.311986 1.216648 58.508821 -0.745210 1.667570 48.011264 -0.000002 -0.000001 0.000002 -7.756792 -9.376470 47.263977 -0.526061 1.541557 45.600549 -0.000000 0.000002 -0.000001 0.000002 -0.000002 0.000001 0.000002 -0.000001 0.000002 0.000002 0.000002 -0.000002 0.000002 -0.000001 0.000001 0.000002 -0.000001 0.000001 0.000002 -0.000001 0.000002 0.000002 0.000002 -0.000001 0.000002 -0.000001 0.000001 0.000002 -0.000001 0.000001 0.000002 -0.000001 0.000002 0.000002 0.000002 -0.000001 -0.000000 0.000004 -0.000000 -0.000000 0.000004 -0.000000 -0.000000 0.000004 -0.000000 
